<svg width="768" height="495" viewBox="0 0 768 495" fill="none" xmlns="http://www.w3.org/2000/svg">
<path opacity="0.5" d="M-105.319 478.878V560.62C-105.319 560.62 182.317 376.558 206.156 356.794C230.491 336.617 243.072 325.51 271.834 316.937C281.346 314.101 296.716 311.738 296.716 311.738L325.071 325.312L314.944 294.986L248.687 281.701L262.865 290.654L244.637 294.986C244.637 294.986 171.423 322.013 127.168 344.952C78.8145 370.015 -105.319 478.878 -105.319 478.878Z" fill="#130F0F"/>
<path opacity="0.5" d="M799 -112L-219 378H-15.6338L777.183 -20.2222L799 -112Z" fill="#130F0F"/>
<g filter="url(#filter0_ii)">
<path d="M252.925 209.726L-80.522 379.199L-42.5236 420.825L290.669 229.223C309.416 219.225 304.667 179.981 304.667 179.981L325.413 187.23L290.669 121.49L264.173 171.732C272.672 172.982 275.671 174.232 275.671 174.232C275.671 174.232 283.67 191.979 252.925 209.726Z" fill="#3878FF" fill-opacity="0.2"/>
</g>
<path fill-rule="evenodd" clip-rule="evenodd" d="M218.934 289.326L219.499 288.197L204.651 290.666L206.054 291.472L218.934 289.326ZM207.146 292.1L208.728 292.944L188.73 304.014L187.369 303.231L207.312 292.195L207.146 292.1Z" fill="#3878FF"/>
<g filter="url(#filter1_b)">
<path d="M215.205 296.946L219.499 288.197L204.286 290.666L206.947 292.195L187.004 303.231L192.603 306.452L212.545 295.416L215.205 296.946Z" fill="#3878FF" fill-opacity="0.2"/>
</g>
<path fill-rule="evenodd" clip-rule="evenodd" d="M219.499 291.118L215.204 299.867L212.545 298.337L192.602 309.373L187.004 306.152V303.27L192.603 306.452L212.545 295.416L215.205 296.946L219.499 288.197V291.118ZM219.499 288.197V288.197L219.499 288.197L219.499 288.197ZM204.593 293.478L204.286 293.587L204.338 293.617L204.593 293.478Z" fill="#3878FF"/>
<path fill-rule="evenodd" clip-rule="evenodd" d="M42.1831 285.538L43.239 283.657L17.6738 286.661L20.0035 288.152L42.1831 285.538ZM21.7942 289.298L24.4523 290.884L-10.6151 308.16L-12.8741 306.712L22.0943 289.491L21.7942 289.298Z" fill="#3878FF"/>
<g filter="url(#filter2_b)">
<path d="M35.1881 298.253L43.2389 283.658L17.0501 286.632L21.4705 289.461L-13.4978 306.683L-4.19782 312.642L30.7705 295.421L35.1881 298.253Z" fill="#3878FF" fill-opacity="0.2"/>
</g>
<path fill-rule="evenodd" clip-rule="evenodd" d="M43.0003 288.647L34.9494 303.242L30.5319 300.41L-4.43647 317.631L-13.7365 311.672L-13.5008 306.749L-4.19783 312.642L30.7705 295.421L35.188 298.253L43.2389 283.658L43.2368 283.658L43.2391 283.657L43.0003 288.647ZM17.3472 291.459L16.8114 291.621L16.8988 291.677L17.3472 291.459Z" fill="#3878FF"/>
<mask id="mask0" mask-type="alpha" maskUnits="userSpaceOnUse" x="171" y="138" width="30" height="117">
<path d="M200.363 138.672C198.634 138.512 196.862 138.864 195.304 139.75L172.505 152.889C171.566 153.423 171.096 154.362 171.086 155.312C171.086 155.622 171.086 250.562 171.086 254.351C171.107 253.412 171.577 252.483 172.505 251.949L195.304 238.81C196.862 237.914 198.623 237.562 200.363 237.732V138.672Z" fill="url(#paint0_linear)"/>
</mask>
<g mask="url(#mask0)">
<g filter="url(#filter3_b)">
<path d="M200.363 138.672C198.634 138.512 196.862 138.864 195.304 139.75L172.505 152.889C171.566 153.423 171.096 154.362 171.086 155.312C171.086 155.622 171.086 250.562 171.086 254.351C171.107 253.412 171.577 252.483 172.505 251.949L195.304 238.81C196.862 237.914 198.623 237.562 200.363 237.732V138.672Z" fill="#024831" fill-opacity="0.7"/>
</g>
</g>
<mask id="mask1" mask-type="alpha" maskUnits="userSpaceOnUse" x="200" y="138" width="26" height="115">
<path d="M223.77 151.374L203.843 139.762C202.765 139.132 201.569 138.78 200.363 138.673V237.722C201.569 237.84 202.765 238.192 203.843 238.811L223.77 250.424C224.699 250.957 225.168 251.897 225.179 252.836C225.179 251.502 225.179 154.128 225.179 153.85C225.189 152.89 224.72 151.929 223.77 151.374Z" fill="url(#paint1_linear)"/>
</mask>
<g mask="url(#mask1)">
<g filter="url(#filter4_b)">
<path d="M223.77 151.374L203.843 139.762C202.765 139.132 201.569 138.78 200.363 138.673V237.722C201.569 237.84 202.765 238.192 203.843 238.811L223.77 250.424C224.699 250.957 225.168 251.897 225.179 252.836C225.179 251.502 225.179 154.128 225.179 153.85C225.189 152.89 224.72 151.929 223.77 151.374Z" fill="#018056" fill-opacity="0.5"/>
</g>
</g>
<mask id="mask2" mask-type="alpha" maskUnits="userSpaceOnUse" x="171" y="155" width="26" height="115">
<path d="M196.894 170.565C195.357 170.597 193.81 170.223 192.433 169.433L172.505 157.831C171.577 157.297 171.107 156.358 171.096 155.419C171.096 159.987 171.096 254.137 171.096 254.426C171.096 255.386 171.566 256.336 172.505 256.881L192.433 268.493C193.81 269.294 195.357 269.657 196.894 269.625V170.565Z" fill="url(#paint2_linear)"/>
</mask>
<g mask="url(#mask2)">
<g filter="url(#filter5_b)">
<path d="M196.894 170.565C195.357 170.597 193.81 170.223 192.433 169.433L172.505 157.831C171.577 157.297 171.107 156.358 171.096 155.419C171.096 159.987 171.096 254.137 171.096 254.426C171.096 255.386 171.566 256.336 172.505 256.881L192.433 268.493C193.81 269.294 195.357 269.657 196.894 269.625V170.565Z" fill="#23CB94"/>
</g>
</g>
<mask id="mask3" mask-type="alpha" maskUnits="userSpaceOnUse" x="196" y="153" width="30" height="117">
<path d="M223.759 156.305L200.961 169.444C199.701 170.17 198.303 170.533 196.894 170.565V269.625C198.303 269.593 199.701 269.23 200.961 268.504L223.759 255.365C224.72 254.81 225.189 253.839 225.179 252.867C225.179 252.59 225.179 156.849 225.179 153.903C225.168 154.832 224.699 155.76 223.759 156.305Z" fill="url(#paint3_linear)"/>
</mask>
<g mask="url(#mask3)">
<g filter="url(#filter6_b)">
<path d="M223.759 156.305L200.961 169.444C199.701 170.17 198.303 170.533 196.894 170.565V269.625C198.303 269.593 199.701 269.23 200.961 268.504L223.759 255.365C224.72 254.81 225.189 253.839 225.179 252.867C225.179 252.59 225.179 156.849 225.179 153.903C225.168 154.832 224.699 155.76 223.759 156.305Z" fill="#23CB94" fill-opacity="0.5"/>
</g>
<path d="M200.961 169.443C198.324 170.958 195.058 170.948 192.433 169.432L172.505 157.83C170.605 156.731 170.616 153.988 172.516 152.899L195.314 139.76C197.951 138.244 201.217 138.244 203.853 139.771L223.781 151.383C225.68 152.483 225.67 155.215 223.77 156.314L200.961 169.443Z" fill="url(#paint4_linear)"/>
</g>
<mask id="mask4" mask-type="alpha" maskUnits="userSpaceOnUse" x="132" y="172" width="30" height="105">
<path d="M161.896 172.496C160.167 172.336 158.395 172.689 156.837 173.574L134.038 186.713C133.099 187.247 132.629 188.186 132.619 189.136C132.619 189.446 132.619 272.912 132.619 276.701C132.64 275.762 133.11 274.833 134.038 274.3L156.837 261.171C158.395 260.275 160.156 259.922 161.896 260.083V172.496Z" fill="url(#paint5_linear)"/>
</mask>
<g mask="url(#mask4)">
<g filter="url(#filter7_b)">
<path d="M161.896 172.496C160.167 172.336 158.395 172.689 156.837 173.574L134.038 186.713C133.099 187.247 132.629 188.186 132.619 189.136C132.619 189.446 132.619 272.912 132.619 276.701C132.64 275.762 133.11 274.833 134.038 274.3L156.837 261.171C158.395 260.275 160.156 259.922 161.896 260.083V172.496Z" fill="#024831" fill-opacity="0.7"/>
</g>
</g>
<mask id="mask5" mask-type="alpha" maskUnits="userSpaceOnUse" x="161" y="172" width="26" height="104">
<path d="M185.313 185.197L165.386 173.585C164.308 172.955 163.113 172.603 161.907 172.496V260.072C163.113 260.189 164.308 260.541 165.386 261.16L185.313 272.773C186.242 273.307 186.712 274.246 186.722 275.185C186.722 273.851 186.722 187.962 186.722 187.674C186.733 186.713 186.253 185.742 185.313 185.197Z" fill="url(#paint6_linear)"/>
</mask>
<g mask="url(#mask5)">
<g filter="url(#filter8_b)">
<path d="M185.313 185.197L165.386 173.585C164.308 172.955 163.113 172.603 161.907 172.496V260.072C163.113 260.189 164.308 260.541 165.386 261.16L185.313 272.773C186.242 273.307 186.712 274.246 186.722 275.185C186.722 273.851 186.722 187.962 186.722 187.674C186.733 186.713 186.253 185.742 185.313 185.197Z" fill="#018056" fill-opacity="0.5"/>
</g>
</g>
<mask id="mask6" mask-type="alpha" maskUnits="userSpaceOnUse" x="132" y="189" width="27" height="103">
<path d="M158.427 204.377C156.89 204.409 155.343 204.036 153.966 203.246L134.038 191.633C133.11 191.1 132.64 190.16 132.629 189.221C132.629 193.789 132.629 276.466 132.629 276.754C132.629 277.715 133.099 278.665 134.038 279.209L153.966 290.822C155.343 291.622 156.89 291.985 158.427 291.953V204.377Z" fill="url(#paint7_linear)"/>
</mask>
<g mask="url(#mask6)">
<g filter="url(#filter9_b)">
<path d="M158.427 204.377C156.89 204.409 155.343 204.036 153.966 203.246L134.038 191.633C133.11 191.1 132.64 190.16 132.629 189.221C132.629 193.789 132.629 276.466 132.629 276.754C132.629 277.715 133.099 278.665 134.038 279.209L153.966 290.822C155.343 291.622 156.89 291.985 158.427 291.953V204.377Z" fill="#23CB94"/>
</g>
</g>
<mask id="mask7" mask-type="alpha" maskUnits="userSpaceOnUse" x="158" y="187" width="29" height="105">
<path d="M185.303 190.118L162.504 203.257C161.245 203.982 159.847 204.345 158.438 204.377V291.953C159.847 291.921 161.245 291.558 162.504 290.832L185.303 277.693C186.263 277.138 186.733 276.156 186.722 275.185C186.722 274.907 186.722 190.641 186.722 187.695C186.701 188.645 186.231 189.584 185.303 190.118Z" fill="url(#paint8_linear)"/>
</mask>
<g mask="url(#mask7)">
<g filter="url(#filter10_b)">
<path d="M185.303 190.118L162.504 203.257C161.245 203.982 159.847 204.345 158.438 204.377V291.953C159.847 291.921 161.245 291.558 162.504 290.832L185.303 277.693C186.263 277.138 186.733 276.156 186.722 275.185C186.722 274.907 186.722 190.641 186.722 187.695C186.701 188.645 186.231 189.584 185.303 190.118Z" fill="#23CB94" fill-opacity="0.5"/>
</g>
<path d="M162.504 203.258C159.868 204.773 156.602 204.773 153.976 203.247L134.049 191.634C132.149 190.535 132.16 187.792 134.06 186.703L156.858 173.564C159.494 172.048 162.76 172.048 165.397 173.575L185.324 185.187C187.224 186.287 187.213 189.019 185.313 190.119L162.504 203.258Z" fill="url(#paint9_linear)"/>
</g>
<path d="M162.288 204.041C159.633 205.63 156.344 205.619 153.7 204.03L133.623 191.867C131.71 190.715 131.721 187.839 133.634 186.698L156.591 172.923C159.246 171.334 162.535 171.334 165.19 172.934L185.256 185.109C187.169 186.261 187.158 189.126 185.245 190.278L162.288 204.041Z" fill="#007851"/>
<path d="M201.005 169.6C198.375 171.118 195.116 171.107 192.497 169.589L172.604 157.971C170.708 156.87 170.719 154.123 172.615 153.033L195.361 139.875C197.992 138.358 201.25 138.358 203.881 139.886L223.763 151.515C225.658 152.616 225.647 155.352 223.752 156.453L201.005 169.6Z" fill="#007851"/>
<mask id="mask8" mask-type="alpha" maskUnits="userSpaceOnUse" x="94" y="208" width="30" height="92">
<path d="M123.44 208.189C121.711 208.029 119.939 208.381 118.38 209.267L95.582 222.406C94.6428 222.939 94.1731 223.879 94.1625 224.829C94.1625 225.138 94.1625 295.263 94.1625 299.041C94.1838 298.102 94.6535 297.173 95.582 296.64L118.38 283.501C119.939 282.604 121.7 282.252 123.44 282.423V208.189Z" fill="url(#paint10_linear)"/>
</mask>
<g mask="url(#mask8)">
<g filter="url(#filter11_b)">
<path d="M123.44 208.189C121.711 208.029 119.939 208.381 118.38 209.267L95.582 222.406C94.6428 222.939 94.1731 223.879 94.1625 224.829C94.1625 225.138 94.1625 295.263 94.1625 299.041C94.1838 298.102 94.6535 297.173 95.582 296.64L118.38 283.501C119.939 282.604 121.7 282.252 123.44 282.423V208.189Z" fill="#024831" fill-opacity="0.7"/>
</g>
</g>
<mask id="mask9" mask-type="alpha" maskUnits="userSpaceOnUse" x="123" y="208" width="26" height="90">
<path d="M146.846 220.879L126.919 209.266C125.841 208.637 124.646 208.284 123.44 208.178V282.411C124.646 282.529 125.841 282.881 126.919 283.5L146.846 295.113C147.775 295.646 148.245 296.586 148.255 297.525C148.255 296.191 148.255 223.644 148.255 223.355C148.266 222.395 147.796 221.434 146.846 220.879Z" fill="url(#paint11_linear)"/>
</mask>
<g mask="url(#mask9)">
<g filter="url(#filter12_b)">
<path d="M146.846 220.879L126.919 209.266C125.841 208.637 124.646 208.284 123.44 208.178V282.411C124.646 282.529 125.841 282.881 126.919 283.5L146.846 295.113C147.775 295.646 148.245 296.586 148.255 297.525C148.255 296.191 148.255 223.644 148.255 223.355C148.266 222.395 147.796 221.434 146.846 220.879Z" fill="#018056" fill-opacity="0.5"/>
</g>
</g>
<mask id="mask10" mask-type="alpha" maskUnits="userSpaceOnUse" x="94" y="224" width="26" height="91">
<path d="M119.971 240.07C118.434 240.102 116.886 239.728 115.509 238.939L95.5819 227.337C94.6533 226.803 94.1836 225.864 94.173 224.924C94.173 229.493 94.173 298.816 94.173 299.105C94.173 300.065 94.6426 301.015 95.5819 301.56L115.509 313.172C116.886 313.973 118.434 314.336 119.971 314.304V240.07Z" fill="url(#paint12_linear)"/>
</mask>
<g mask="url(#mask10)">
<g filter="url(#filter13_b)">
<path d="M119.971 240.07C118.434 240.102 116.886 239.728 115.509 238.939L95.5819 227.337C94.6533 226.803 94.1836 225.864 94.173 224.924C94.173 229.493 94.173 298.816 94.173 299.105C94.173 300.065 94.6426 301.015 95.5819 301.56L115.509 313.172C116.886 313.973 118.434 314.336 119.971 314.304V240.07Z" fill="#23CB94"/>
</g>
</g>
<mask id="mask11" mask-type="alpha" maskUnits="userSpaceOnUse" x="119" y="223" width="30" height="92">
<path d="M146.847 225.811L124.048 238.95C122.789 239.675 121.39 240.038 119.982 240.07V314.304C121.39 314.272 122.789 313.909 124.048 313.183L146.847 300.044C147.807 299.489 148.277 298.518 148.266 297.547C148.266 297.269 148.266 226.355 148.266 223.409C148.245 224.338 147.775 225.277 146.847 225.811Z" fill="url(#paint13_linear)"/>
</mask>
<g mask="url(#mask11)">
<path d="M146.847 225.811L124.048 238.95C122.789 239.675 121.39 240.038 119.982 240.07V314.304C121.39 314.272 122.789 313.909 124.048 313.183L146.847 300.044C147.807 299.489 148.277 298.518 148.266 297.547C148.266 297.269 148.266 226.355 148.266 223.409C148.245 224.338 147.775 225.277 146.847 225.811Z" fill="#23CB94" fill-opacity="0.5"/>
<path d="M124.049 238.949C121.412 240.464 118.146 240.454 115.521 238.938L95.5933 227.336C93.6934 226.237 93.7041 223.493 95.604 222.405L118.402 209.266C121.039 207.75 124.305 207.75 126.941 209.276L146.868 220.889C148.768 221.988 148.758 224.721 146.858 225.82L124.049 238.949Z" fill="url(#paint14_linear)"/>
</g>
<mask id="mask12" mask-type="alpha" maskUnits="userSpaceOnUse" x="55" y="258" width="30" height="64">
<path d="M84.9833 258.952C83.2542 258.791 81.4824 259.144 79.9241 260.03L57.1256 273.169C56.1864 273.702 55.7167 274.641 55.7061 275.591C55.7061 275.901 55.7061 317.602 55.7061 321.391C55.7274 320.452 56.197 319.523 57.1256 318.99L79.9241 305.851C81.4824 304.954 83.2435 304.602 84.9833 304.773V258.952Z" fill="url(#paint15_linear)"/>
</mask>
<g mask="url(#mask12)">
<g filter="url(#filter14_b)">
<path d="M84.9833 258.952C83.2542 258.791 81.4824 259.144 79.9241 260.03L57.1256 273.169C56.1864 273.702 55.7167 274.641 55.7061 275.591C55.7061 275.901 55.7061 317.602 55.7061 321.391C55.7274 320.452 56.197 319.523 57.1256 318.99L79.9241 305.851C81.4824 304.954 83.2435 304.602 84.9833 304.773V258.952Z" fill="#024831" fill-opacity="0.7"/>
</g>
</g>
<mask id="mask13" mask-type="alpha" maskUnits="userSpaceOnUse" x="84" y="258" width="26" height="62">
<path d="M108.39 271.653L88.4629 260.04C87.3849 259.411 86.1895 259.058 84.9834 258.952V304.762C86.1895 304.879 87.3849 305.232 88.4629 305.851L108.39 317.463C109.319 317.997 109.788 318.936 109.799 319.876C109.799 318.541 109.799 274.417 109.799 274.129C109.81 273.169 109.34 272.197 108.39 271.653Z" fill="url(#paint16_linear)"/>
</mask>
<g mask="url(#mask13)">
<path d="M108.39 271.653L88.4629 260.04C87.3849 259.411 86.1895 259.058 84.9834 258.952V304.762C86.1895 304.879 87.3849 305.232 88.4629 305.851L108.39 317.463C109.319 317.997 109.788 318.936 109.799 319.876C109.799 318.541 109.799 274.417 109.799 274.129C109.81 273.169 109.34 272.197 108.39 271.653Z" fill="#018056" fill-opacity="0.5"/>
</g>
<mask id="mask14" mask-type="alpha" maskUnits="userSpaceOnUse" x="55" y="275" width="27" height="62">
<path d="M81.5144 290.834C79.9774 290.866 78.4297 290.492 77.0529 289.702L57.1256 278.1C56.197 277.567 55.7273 276.627 55.7167 275.688C55.7167 280.256 55.7167 321.167 55.7167 321.456C55.7167 322.416 56.1863 323.366 57.1256 323.911L77.0529 335.523C78.4297 336.324 79.9774 336.687 81.5144 336.655V290.834Z" fill="url(#paint17_linear)"/>
</mask>
<g mask="url(#mask14)">
<g filter="url(#filter15_b)">
<path d="M81.5144 290.834C79.9774 290.866 78.4297 290.492 77.0529 289.702L57.1256 278.1C56.197 277.567 55.7273 276.627 55.7167 275.688C55.7167 280.256 55.7167 321.167 55.7167 321.456C55.7167 322.416 56.1863 323.366 57.1256 323.911L77.0529 335.523C78.4297 336.324 79.9774 336.687 81.5144 336.655V290.834Z" fill="#19916B"/>
</g>
</g>
<mask id="mask15" mask-type="alpha" maskUnits="userSpaceOnUse" x="81" y="274" width="29" height="63">
<path d="M108.38 276.574L85.5811 289.713C84.3216 290.439 82.9234 290.801 81.5145 290.834V336.644C82.9234 336.612 84.3216 336.249 85.5811 335.523L108.38 322.384C109.34 321.829 109.81 320.858 109.799 319.887C109.799 319.609 109.799 277.107 109.799 274.162C109.788 275.101 109.319 276.04 108.38 276.574Z" fill="url(#paint18_linear)"/>
</mask>
<g mask="url(#mask15)">
<g filter="url(#filter16_b)">
<path d="M108.38 276.574L85.5811 289.713C84.3216 290.439 82.9234 290.801 81.5145 290.834V336.644C82.9234 336.612 84.3216 336.249 85.5811 335.523L108.38 322.384C109.34 321.829 109.81 320.858 109.799 319.887C109.799 319.609 109.799 277.107 109.799 274.162C109.788 275.101 109.319 276.04 108.38 276.574Z" fill="#23CB94" fill-opacity="0.5"/>
</g>
</g>
<mask id="mask16" mask-type="alpha" maskUnits="userSpaceOnUse" x="59" y="276" width="2" height="41">
<path d="M60.1889 276.947H59.5271V316.898H60.1889V276.947Z" fill="url(#paint19_linear)"/>
</mask>
<g mask="url(#mask16)">
<path d="M85.5811 289.711C82.9448 291.227 79.6787 291.227 77.053 289.701L57.1258 278.099C55.2259 276.999 55.2366 274.256 57.1364 273.167L79.9349 260.028C82.5712 258.513 85.8373 258.513 88.4736 260.039L108.401 271.652C110.301 272.751 110.29 275.484 108.39 276.583L85.5811 289.711Z" fill="url(#paint20_linear)"/>
</g>
<path d="M85.5297 290.035C82.8988 291.599 79.6395 291.588 77.0193 290.024L57.1227 278.044C55.2268 276.909 55.2374 274.077 57.1333 272.953L79.8845 259.387C82.5154 257.822 85.7747 257.822 88.4055 259.398L108.291 271.388C110.187 272.523 110.177 275.344 108.281 276.48L85.5297 290.035Z" fill="#007851"/>
<path d="M124.024 239.546C121.393 241.111 118.134 241.1 115.513 239.535L95.6167 227.556C93.7208 226.421 93.7314 223.589 95.6274 222.465L118.379 208.899C121.009 207.334 124.269 207.334 126.9 208.91L146.785 220.9C148.681 222.035 148.671 224.856 146.775 225.991L124.024 239.546Z" fill="#007851"/>
<g filter="url(#filter17_f)">
<ellipse cx="128.57" cy="225.888" rx="16.7222" ry="5.19817" transform="rotate(-24.4935 128.57 225.888)" fill="#003423" fill-opacity="0.6"/>
</g>
<g filter="url(#filter18_f)">
<ellipse cx="155.335" cy="199.633" rx="9.74844" ry="3.24948" transform="rotate(-27.6596 155.335 199.633)" fill="#003423" fill-opacity="0.4"/>
</g>
<path d="M152.538 172.149C152.538 172.149 154.95 172.149 156.21 172.651C157.469 173.153 159.07 176.472 158.771 177.326C158.483 178.127 156.829 177.956 155.804 176.824C153.893 174.711 150.723 175.565 150.723 175.565L152.538 172.149Z" fill="#F7F7F7"/>
<path d="M116.088 169.14L113.922 173.217L113.836 175.138L113.857 177.508L112.811 179.674C112.811 179.674 112.438 180.528 114.455 181.393C115.48 181.83 116.91 180.528 116.91 180.528C117.497 180.176 118.212 178.842 118.351 178.073C118.479 177.369 118.618 173.964 118.618 173.964C118.49 172.929 117.188 168.947 116.088 169.14Z" fill="#F7F7F7"/>
<path d="M108.339 186.569L126.505 177.059C126.505 177.059 126.612 177.091 126.655 177.187C126.676 177.262 126.676 177.401 126.676 177.401C126.676 177.401 126.836 181.638 126.761 185.769C126.74 186.719 126.228 186.953 126.228 186.953C126.27 187.839 126.345 189.59 126.484 190.486C126.591 191.148 126.441 191.575 125.833 191.884L109.107 201.16C108.499 201.459 108.04 201.16 108.083 200.487L108.339 186.569Z" fill="#598FFF"/>
<path d="M105.98 185.406C105.98 185.406 105.927 184.936 106.354 184.691C110.794 182.257 119.792 177.561 123.026 176.098C123.869 175.714 124.755 176.184 124.755 176.184L126.484 177.07L109.033 186.42C109.033 186.42 108.542 186.59 108.51 187.103C108.296 190.443 108.094 200.487 108.094 200.487C108.072 200.829 108.179 201.064 108.361 201.192C108.361 201.192 107.133 199.922 106.407 199.42C105.916 199.068 104.689 198.726 104.689 198.726C104.347 198.587 104.187 198.363 104.209 198.022L105.98 185.406Z" fill="url(#paint21_linear)"/>
<path d="M118.511 176.941L118.991 178.841L119.952 179.428L120.069 179.353C120.069 179.353 119.931 178.691 119.696 177.507C119.536 176.759 118.522 176.631 118.522 176.631V176.941H118.511Z" fill="#3878FF"/>
<path d="M117.966 176.471L113.836 178.552C113.836 178.552 112.907 179.032 112.843 179.961C112.8 180.644 113.611 182.715 113.611 182.715L113.761 182.683V180.313C113.761 180.313 113.665 179.747 114.337 179.449C114.978 179.16 117.731 177.645 118.82 177.143C119.108 177.015 119.407 177.175 119.514 177.442C119.535 177.495 119.951 179.427 119.951 179.427C119.951 179.427 120.069 179.384 120.069 179.352C119.973 178.776 119.653 177.335 119.61 177.25C119.557 177.154 119.492 177.026 119.375 176.94C119.226 176.823 119.012 176.652 118.735 176.481C118.425 176.289 117.966 176.471 117.966 176.471Z" fill="#3878FF"/>
<path d="M117.86 176.408L113.729 178.414C113.729 178.414 112.779 178.895 112.715 179.823C112.662 180.517 112.694 182.001 112.694 182.001L113.612 182.705V180.389C113.612 180.389 113.526 179.364 114.209 179.066C114.861 178.788 117.668 177.347 118.778 176.845C118.97 176.76 119.141 176.824 119.29 176.899C119.471 176.995 119.621 177.283 119.621 177.283C119.621 177.283 119.546 177.027 119.29 176.835C119.141 176.717 118.938 176.515 118.65 176.354C118.308 176.173 117.86 176.408 117.86 176.408Z" fill="#3878FF"/>
<path d="M120.293 219.688C120.293 219.688 119.162 218.343 118.917 218.461C118.671 218.589 117.935 219.88 117.871 220.062C117.807 220.243 117.807 220.489 118.244 220.788C118.682 221.087 120.293 219.688 120.293 219.688Z" fill="#3274FF"/>
<path d="M160.052 186.185C160.052 186.164 160.063 186.153 160.052 186.132C160.052 186.121 160.052 186.11 160.041 186.1C160.041 186.089 160.041 186.078 160.041 186.057C160.031 185.844 159.849 185.481 159.849 185.481C159.422 184.541 157.779 184.734 156.498 185.139C156.498 185.139 154.064 185.758 153.296 185.79C152.036 185.844 153.018 184.072 153.018 184.072L145.792 186.847L146.454 191.991L146.465 192.056C146.529 192.546 148.343 194.105 150.318 193.315L152.218 192.237C152.218 192.216 152.207 192.184 152.207 192.162C152.154 191.746 152.026 191.255 152.111 190.924C152.132 190.849 152.453 190.657 152.709 190.615C152.976 190.572 153.306 190.519 153.584 190.465C153.84 190.465 154.032 190.476 154.032 190.476C154.438 190.465 155.035 190.369 156.039 189.825C156.21 189.75 156.402 189.665 156.626 189.558C157.779 189.014 159.241 187.594 159.241 187.594C159.582 187.284 159.967 186.943 160.063 186.495C160.095 186.452 160.063 186.42 160.052 186.185Z" fill="#0E3483"/>
<path d="M115.426 174.37C115.426 174.37 115.074 175.469 115.907 176.483C116.75 177.508 116.75 177.999 116.75 177.999C116.75 177.999 116.867 178.33 116.494 178.618C116.12 178.906 115.309 179.643 115.426 180.048C115.533 180.454 115.725 180.785 116.302 180.507C116.878 180.23 118.255 178.757 118.255 178.757C118.255 178.757 118.799 177.924 118.436 176.27C118.095 174.658 117.401 174.199 117.401 174.199C117.401 174.199 115.907 173.441 115.426 174.37Z" fill="#F7F7F7"/>
<path d="M115.597 176.142C113.793 175.694 113.548 174.413 113.548 174.413C113.548 174.413 113.206 174.274 113.441 173.036C113.868 170.709 115.458 162.373 116.44 159.619C117.529 156.588 121.841 148.807 121.841 148.807C121.841 148.807 125.011 142.318 129.483 144.292C132.184 145.488 129.206 148.861 128.288 151.283C127.562 153.183 124.264 159.47 123.122 162.288C121.798 165.586 118.767 175.8 118.767 175.8C118.767 175.8 117.412 176.59 115.597 176.142Z" fill="url(#paint22_linear)"/>
<path d="M136.773 128.495L141.128 129.029L139.303 140.236C138.844 143.459 137.435 143.833 136.464 143.769C134.425 143.619 132.258 142.285 131.17 141.517C129.078 140.033 129.43 136.255 129.441 135.945L129.355 128.346L136.773 128.495Z" fill="#F7F7F7"/>
<path d="M128.309 144.047L129.526 137.034L135.418 138.411L134.66 145.221C134.66 146.192 135.343 146.459 135.855 147.281L128.309 144.047Z" fill="#F7F7F7"/>
<path d="M132.579 168.35C132.579 168.35 145.696 161.263 150.147 163.675C152.602 165.009 153.541 185.459 153.541 185.459C153.541 185.459 153.712 188.309 149.816 189.163C147.628 189.643 145.237 188.053 145.141 187.434C143.177 173.687 143.668 176.793 143.071 175.277C142.046 172.726 128.747 187.263 124.627 182.599C122.119 179.76 123.111 175.096 123.111 175.096L132.579 168.35Z" fill="#0061D1"/>
<path d="M119.749 218.76C119.749 218.76 118.009 219.892 117.113 222.848C116.75 224.065 117.23 224.876 117.23 224.876C117.23 224.876 118.266 225.26 119.183 225.666C119.365 225.741 119.578 226.146 119.728 226.285C121.436 227.929 122.311 228.42 122.556 228.558C123.869 229.295 125.555 229.476 126.58 229.295C127.605 229.113 130.497 227.416 130.497 227.416C130.497 227.416 130.839 226.04 129.729 225.506C128.619 224.972 126.655 225.239 126.655 225.239C126.655 225.239 124.211 222.955 123.357 222.058C122.503 221.172 119.749 218.76 119.749 218.76Z" fill="#0E3483"/>
<path d="M137.403 180.049C136.4 186.709 133.208 202.292 132.322 204.736C130.401 209.998 125.652 223.351 125.385 223.756C125.299 223.874 124.883 224.546 121.798 221.408C120.838 220.426 118.949 219.22 117.871 220.063C117.871 220.063 121.937 206.188 123.656 201.033C126.292 193.134 126.409 176.441 126.409 176.441L137.403 180.049Z" fill="#3681F2"/>
<path d="M138.673 150.247C139.975 151.592 141.587 155.744 141.352 160.462C140.872 169.79 139.079 180.805 139.079 180.805C139.079 181.627 138.001 183.079 135.492 183.676C134.19 183.986 132.771 184.541 129.75 183.676C125.566 182.481 122.684 179.065 122.684 177.336C122.684 177.336 123.154 171.786 122.332 156.16C121.734 144.91 127.861 143.598 127.861 143.598L133.486 145.562L138.673 150.247Z" fill="url(#paint23_linear)"/>
<path d="M128.939 141.965C128.149 141.784 127.946 141.912 127.797 142.392C127.647 142.872 127.647 142.904 127.466 143.363C127.317 143.747 127.487 143.769 127.487 143.769C127.487 143.769 131.458 144.857 134.404 146.875C136.496 148.305 136.656 148.433 136.656 148.433L136.165 146.821C135.781 145.444 134.201 144.1 131.831 143.054C131.842 143.054 129.91 142.189 128.939 141.965Z" fill="white"/>
<path d="M129.622 125.859C129.729 125.656 129.931 125.347 130.22 125.165C130.604 124.92 131.009 124.93 131.009 124.93C131.009 124.93 130.892 124.962 130.486 125.186C130.294 125.293 130.198 125.453 130.156 125.603C131.447 125.058 133.069 124.856 135.065 125.154C135.311 125.186 136.656 125.528 137.744 125.475C137.808 125.475 137.307 125.624 137.371 125.966C137.403 126.126 137.947 126.104 138.289 126.104C138.556 126.104 139.73 126.339 139.986 126.819C139.996 126.851 139.409 126.937 139.762 127.225C140.285 127.663 140.829 128.122 141.341 128.869C141.747 129.445 142.035 130.598 142.035 130.598C141.875 130.907 141.032 130.555 140.669 130.918C140.477 131.11 139.9 131.74 139.538 132.668C139.175 133.597 138.95 134.483 138.705 135.732L138.459 136.906C138.438 137.343 137.819 136.041 137.531 135.657C137.243 135.262 136.656 135.508 134.991 136.959C134.276 137.589 131.244 140.054 131.244 140.054C130.412 140.567 129.675 140.855 128.96 139.766C128.725 139.403 127.018 136.351 126.719 135.251C125.694 131.516 126.505 127.545 129.622 125.859Z" fill="#0E3483"/>
<path d="M152.858 175.362C152.218 176.494 149.539 175.981 149.539 175.981C149.539 175.981 140.114 173.036 137.552 168.585C135.951 165.788 134.585 159.971 134.585 159.971C134.585 159.971 132.13 152.447 135.215 150.728C137.787 149.298 139.687 151.956 140.584 154.378C141.79 157.623 141.961 161.305 143.433 164.369C145.109 167.87 153.157 171.755 153.157 171.755C153.157 171.755 153.819 173.676 152.858 175.362Z" fill="url(#paint24_linear)"/>
<defs>
<filter id="filter0_ii" x="-81.4455" y="120.567" width="407.32" height="300.72" filterUnits="userSpaceOnUse" color-interpolation-filters="sRGB">
<feFlood flood-opacity="0" result="BackgroundImageFix"/>
<feBlend mode="normal" in="SourceGraphic" in2="BackgroundImageFix" result="shape"/>
<feColorMatrix in="SourceAlpha" type="matrix" values="0 0 0 0 0 0 0 0 0 0 0 0 0 0 0 0 0 0 127 0" result="hardAlpha"/>
<feOffset dx="0.461744" dy="0.461744"/>
<feGaussianBlur stdDeviation="0.230872"/>
<feComposite in2="hardAlpha" operator="arithmetic" k2="-1" k3="1"/>
<feColorMatrix type="matrix" values="0 0 0 0 1 0 0 0 0 1 0 0 0 0 1 0 0 0 0.25 0"/>
<feBlend mode="normal" in2="shape" result="effect1_innerShadow"/>
<feColorMatrix in="SourceAlpha" type="matrix" values="0 0 0 0 0 0 0 0 0 0 0 0 0 0 0 0 0 0 127 0" result="hardAlpha"/>
<feOffset dx="-1.38523" dy="-0.923489"/>
<feGaussianBlur stdDeviation="0.461744"/>
<feComposite in2="hardAlpha" operator="arithmetic" k2="-1" k3="1"/>
<feColorMatrix type="matrix" values="0 0 0 0 0.219608 0 0 0 0 0.470588 0 0 0 0 1 0 0 0 1 0"/>
<feBlend mode="normal" in2="effect1_innerShadow" result="effect2_innerShadow"/>
</filter>
<filter id="filter1_b" x="185.318" y="286.511" width="35.8671" height="21.6278" filterUnits="userSpaceOnUse" color-interpolation-filters="sRGB">
<feFlood flood-opacity="0" result="BackgroundImageFix"/>
<feGaussianBlur in="BackgroundImage" stdDeviation="0.843073"/>
<feComposite in2="SourceAlpha" operator="in" result="effect1_backgroundBlur"/>
<feBlend mode="normal" in="SourceGraphic" in2="effect1_backgroundBlur" result="shape"/>
</filter>
<filter id="filter2_b" x="-15.4474" y="279.314" width="60.3724" height="37.2134" filterUnits="userSpaceOnUse" color-interpolation-filters="sRGB">
<feFlood flood-opacity="0" result="BackgroundImageFix"/>
<feGaussianBlur in="BackgroundImage" stdDeviation="0.843073"/>
<feComposite in2="SourceAlpha" operator="in" result="effect1_backgroundBlur"/>
<feBlend mode="normal" in="SourceGraphic" in2="effect1_backgroundBlur" result="shape"/>
</filter>
<filter id="filter3_b" x="168.777" y="136.326" width="33.8947" height="120.334" filterUnits="userSpaceOnUse" color-interpolation-filters="sRGB">
<feFlood flood-opacity="0" result="BackgroundImageFix"/>
<feGaussianBlur in="BackgroundImage" stdDeviation="1.15436"/>
<feComposite in2="SourceAlpha" operator="in" result="effect1_backgroundBlur"/>
<feBlend mode="normal" in="SourceGraphic" in2="effect1_backgroundBlur" result="shape"/>
</filter>
<filter id="filter4_b" x="198.054" y="136.364" width="29.4333" height="118.78" filterUnits="userSpaceOnUse" color-interpolation-filters="sRGB">
<feFlood flood-opacity="0" result="BackgroundImageFix"/>
<feGaussianBlur in="BackgroundImage" stdDeviation="1.15436"/>
<feComposite in2="SourceAlpha" operator="in" result="effect1_backgroundBlur"/>
<feBlend mode="normal" in="SourceGraphic" in2="effect1_backgroundBlur" result="shape"/>
</filter>
<filter id="filter5_b" x="168.788" y="153.11" width="30.4151" height="118.825" filterUnits="userSpaceOnUse" color-interpolation-filters="sRGB">
<feFlood flood-opacity="0" result="BackgroundImageFix"/>
<feGaussianBlur in="BackgroundImage" stdDeviation="1.15436"/>
<feComposite in2="SourceAlpha" operator="in" result="effect1_backgroundBlur"/>
<feBlend mode="normal" in="SourceGraphic" in2="effect1_backgroundBlur" result="shape"/>
</filter>
<filter id="filter6_b" x="195.047" y="152.056" width="31.9787" height="119.415" filterUnits="userSpaceOnUse" color-interpolation-filters="sRGB">
<feFlood flood-opacity="0" result="BackgroundImageFix"/>
<feGaussianBlur in="BackgroundImage" stdDeviation="0.923489"/>
<feComposite in2="SourceAlpha" operator="in" result="effect1_backgroundBlur"/>
<feBlend mode="normal" in="SourceGraphic" in2="effect1_backgroundBlur" result="shape"/>
</filter>
<filter id="filter7_b" x="130.31" y="170.15" width="33.8947" height="108.86" filterUnits="userSpaceOnUse" color-interpolation-filters="sRGB">
<feFlood flood-opacity="0" result="BackgroundImageFix"/>
<feGaussianBlur in="BackgroundImage" stdDeviation="1.15436"/>
<feComposite in2="SourceAlpha" operator="in" result="effect1_backgroundBlur"/>
<feBlend mode="normal" in="SourceGraphic" in2="effect1_backgroundBlur" result="shape"/>
</filter>
<filter id="filter8_b" x="159.598" y="170.187" width="29.4333" height="107.306" filterUnits="userSpaceOnUse" color-interpolation-filters="sRGB">
<feFlood flood-opacity="0" result="BackgroundImageFix"/>
<feGaussianBlur in="BackgroundImage" stdDeviation="1.15436"/>
<feComposite in2="SourceAlpha" operator="in" result="effect1_backgroundBlur"/>
<feBlend mode="normal" in="SourceGraphic" in2="effect1_backgroundBlur" result="shape"/>
</filter>
<filter id="filter9_b" x="130.321" y="186.912" width="30.4151" height="107.351" filterUnits="userSpaceOnUse" color-interpolation-filters="sRGB">
<feFlood flood-opacity="0" result="BackgroundImageFix"/>
<feGaussianBlur in="BackgroundImage" stdDeviation="1.15436"/>
<feComposite in2="SourceAlpha" operator="in" result="effect1_backgroundBlur"/>
<feBlend mode="normal" in="SourceGraphic" in2="effect1_backgroundBlur" result="shape"/>
</filter>
<filter id="filter10_b" x="156.129" y="185.386" width="32.9022" height="108.876" filterUnits="userSpaceOnUse" color-interpolation-filters="sRGB">
<feFlood flood-opacity="0" result="BackgroundImageFix"/>
<feGaussianBlur in="BackgroundImage" stdDeviation="1.15436"/>
<feComposite in2="SourceAlpha" operator="in" result="effect1_backgroundBlur"/>
<feBlend mode="normal" in="SourceGraphic" in2="effect1_backgroundBlur" result="shape"/>
</filter>
<filter id="filter11_b" x="91.8538" y="205.843" width="33.8947" height="95.5071" filterUnits="userSpaceOnUse" color-interpolation-filters="sRGB">
<feFlood flood-opacity="0" result="BackgroundImageFix"/>
<feGaussianBlur in="BackgroundImage" stdDeviation="1.15436"/>
<feComposite in2="SourceAlpha" operator="in" result="effect1_backgroundBlur"/>
<feBlend mode="normal" in="SourceGraphic" in2="effect1_backgroundBlur" result="shape"/>
</filter>
<filter id="filter12_b" x="121.593" y="206.331" width="28.5099" height="93.0412" filterUnits="userSpaceOnUse" color-interpolation-filters="sRGB">
<feFlood flood-opacity="0" result="BackgroundImageFix"/>
<feGaussianBlur in="BackgroundImage" stdDeviation="0.923489"/>
<feComposite in2="SourceAlpha" operator="in" result="effect1_backgroundBlur"/>
<feBlend mode="normal" in="SourceGraphic" in2="effect1_backgroundBlur" result="shape"/>
</filter>
<filter id="filter13_b" x="91.8643" y="222.616" width="30.4151" height="93.9987" filterUnits="userSpaceOnUse" color-interpolation-filters="sRGB">
<feFlood flood-opacity="0" result="BackgroundImageFix"/>
<feGaussianBlur in="BackgroundImage" stdDeviation="1.15436"/>
<feComposite in2="SourceAlpha" operator="in" result="effect1_backgroundBlur"/>
<feBlend mode="normal" in="SourceGraphic" in2="effect1_backgroundBlur" result="shape"/>
</filter>
<filter id="filter14_b" x="53.3973" y="256.605" width="33.8947" height="67.0945" filterUnits="userSpaceOnUse" color-interpolation-filters="sRGB">
<feFlood flood-opacity="0" result="BackgroundImageFix"/>
<feGaussianBlur in="BackgroundImage" stdDeviation="1.15436"/>
<feComposite in2="SourceAlpha" operator="in" result="effect1_backgroundBlur"/>
<feBlend mode="normal" in="SourceGraphic" in2="effect1_backgroundBlur" result="shape"/>
</filter>
<filter id="filter15_b" x="53.408" y="273.379" width="30.4151" height="65.586" filterUnits="userSpaceOnUse" color-interpolation-filters="sRGB">
<feFlood flood-opacity="0" result="BackgroundImageFix"/>
<feGaussianBlur in="BackgroundImage" stdDeviation="1.15436"/>
<feComposite in2="SourceAlpha" operator="in" result="effect1_backgroundBlur"/>
<feBlend mode="normal" in="SourceGraphic" in2="effect1_backgroundBlur" result="shape"/>
</filter>
<filter id="filter16_b" x="79.2058" y="271.853" width="32.9022" height="67.0997" filterUnits="userSpaceOnUse" color-interpolation-filters="sRGB">
<feFlood flood-opacity="0" result="BackgroundImageFix"/>
<feGaussianBlur in="BackgroundImage" stdDeviation="1.15436"/>
<feComposite in2="SourceAlpha" operator="in" result="effect1_backgroundBlur"/>
<feBlend mode="normal" in="SourceGraphic" in2="effect1_backgroundBlur" result="shape"/>
</filter>
<filter id="filter17_f" x="106.58" y="209.608" width="43.9798" height="32.5613" filterUnits="userSpaceOnUse" color-interpolation-filters="sRGB">
<feFlood flood-opacity="0" result="BackgroundImageFix"/>
<feBlend mode="normal" in="SourceGraphic" in2="BackgroundImageFix" result="shape"/>
<feGaussianBlur stdDeviation="2.30872" result="effect1_foregroundBlur"/>
</filter>
<filter id="filter18_f" x="140.574" y="187.612" width="29.5206" height="24.042" filterUnits="userSpaceOnUse" color-interpolation-filters="sRGB">
<feFlood flood-opacity="0" result="BackgroundImageFix"/>
<feBlend mode="normal" in="SourceGraphic" in2="BackgroundImageFix" result="shape"/>
<feGaussianBlur stdDeviation="2.30872" result="effect1_foregroundBlur"/>
</filter>
<linearGradient id="paint0_linear" x1="185.723" y1="143.418" x2="185.723" y2="256.527" gradientUnits="userSpaceOnUse">
<stop stop-color="white"/>
<stop offset="1" stop-color="#262626"/>
</linearGradient>
<linearGradient id="paint1_linear" x1="212.771" y1="143.726" x2="212.771" y2="245.396" gradientUnits="userSpaceOnUse">
<stop stop-color="white"/>
<stop offset="1" stop-color="#262626"/>
</linearGradient>
<linearGradient id="paint2_linear" x1="183.988" y1="172.101" x2="183.988" y2="267.638" gradientUnits="userSpaceOnUse">
<stop stop-color="white"/>
<stop offset="1" stop-color="#262626"/>
</linearGradient>
<linearGradient id="paint3_linear" x1="211.037" y1="159.657" x2="211.037" y2="258.243" gradientUnits="userSpaceOnUse">
<stop stop-color="white"/>
<stop offset="1" stop-color="#262626"/>
</linearGradient>
<linearGradient id="paint4_linear" x1="54.1724" y1="226.577" x2="308.2" y2="99.563" gradientUnits="userSpaceOnUse">
<stop stop-color="#7D1EDC"/>
<stop offset="1" stop-color="#12C2E9"/>
</linearGradient>
<linearGradient id="paint5_linear" x1="147.263" y1="176.764" x2="147.263" y2="278.655" gradientUnits="userSpaceOnUse">
<stop stop-color="white"/>
<stop offset="1" stop-color="#262626"/>
</linearGradient>
<linearGradient id="paint6_linear" x1="174.311" y1="177.037" x2="174.311" y2="268.486" gradientUnits="userSpaceOnUse">
<stop stop-color="white"/>
<stop offset="1" stop-color="#262626"/>
</linearGradient>
<linearGradient id="paint7_linear" x1="145.529" y1="204.243" x2="145.529" y2="290.179" gradientUnits="userSpaceOnUse">
<stop stop-color="white"/>
<stop offset="1" stop-color="#262626"/>
</linearGradient>
<linearGradient id="paint8_linear" x1="172.577" y1="192.904" x2="172.577" y2="281.713" gradientUnits="userSpaceOnUse">
<stop stop-color="white"/>
<stop offset="1" stop-color="#262626"/>
</linearGradient>
<linearGradient id="paint9_linear" x1="55.4179" y1="240.545" x2="309.444" y2="113.532" gradientUnits="userSpaceOnUse">
<stop stop-color="#7D1EDC"/>
<stop offset="1" stop-color="#12C2E9"/>
</linearGradient>
<linearGradient id="paint10_linear" x1="108.803" y1="211.903" x2="108.803" y2="300.746" gradientUnits="userSpaceOnUse">
<stop stop-color="white"/>
<stop offset="1" stop-color="#262626"/>
</linearGradient>
<linearGradient id="paint11_linear" x1="135.852" y1="212.137" x2="135.852" y2="291.7" gradientUnits="userSpaceOnUse">
<stop stop-color="white"/>
<stop offset="1" stop-color="#262626"/>
</linearGradient>
<linearGradient id="paint12_linear" x1="107.069" y1="237.983" x2="107.069" y2="312.754" gradientUnits="userSpaceOnUse">
<stop stop-color="white"/>
<stop offset="1" stop-color="#262626"/>
</linearGradient>
<linearGradient id="paint13_linear" x1="134.117" y1="227.931" x2="134.117" y2="305.369" gradientUnits="userSpaceOnUse">
<stop stop-color="white"/>
<stop offset="1" stop-color="#262626"/>
</linearGradient>
<linearGradient id="paint14_linear" x1="56.6633" y1="256.383" x2="310.691" y2="129.369" gradientUnits="userSpaceOnUse">
<stop stop-color="#7D1EDC"/>
<stop offset="1" stop-color="#12C2E9"/>
</linearGradient>
<linearGradient id="paint15_linear" x1="70.3435" y1="261.492" x2="70.3435" y2="322.554" gradientUnits="userSpaceOnUse">
<stop stop-color="white"/>
<stop offset="1" stop-color="#262626"/>
</linearGradient>
<linearGradient id="paint16_linear" x1="97.3919" y1="261.643" x2="97.3919" y2="315.897" gradientUnits="userSpaceOnUse">
<stop stop-color="white"/>
<stop offset="1" stop-color="#262626"/>
</linearGradient>
<linearGradient id="paint17_linear" x1="68.609" y1="284.594" x2="68.609" y2="335.591" gradientUnits="userSpaceOnUse">
<stop stop-color="white"/>
<stop offset="1" stop-color="#262626"/>
</linearGradient>
<linearGradient id="paint18_linear" x1="95.6576" y1="277.278" x2="95.6576" y2="330.506" gradientUnits="userSpaceOnUse">
<stop stop-color="white"/>
<stop offset="1" stop-color="#262626"/>
</linearGradient>
<linearGradient id="paint19_linear" x1="59.8601" y1="277.732" x2="59.8601" y2="315.389" gradientUnits="userSpaceOnUse">
<stop/>
<stop offset="0.0428" stop-color="#070707"/>
<stop offset="0.105" stop-color="#1A1A1A"/>
<stop offset="0.1792" stop-color="#3A3A3A"/>
<stop offset="0.2625" stop-color="#676767"/>
<stop offset="0.3535" stop-color="#9F9F9F"/>
<stop offset="0.4494" stop-color="#E4E4E4"/>
<stop offset="0.4854" stop-color="white"/>
<stop offset="0.536" stop-color="#D2D2D2"/>
<stop offset="0.6048" stop-color="#9B9B9B"/>
<stop offset="0.6742" stop-color="#6B6B6B"/>
<stop offset="0.7427" stop-color="#454545"/>
<stop offset="0.8102" stop-color="#272727"/>
<stop offset="0.8762" stop-color="#111111"/>
<stop offset="0.9402" stop-color="#040404"/>
<stop offset="1"/>
</linearGradient>
<linearGradient id="paint20_linear" x1="57.9084" y1="287.294" x2="311.936" y2="160.28" gradientUnits="userSpaceOnUse">
<stop stop-color="#7D1EDC"/>
<stop offset="1" stop-color="#12C2E9"/>
</linearGradient>
<linearGradient id="paint21_linear" x1="126.589" y1="180.87" x2="107.269" y2="192.993" gradientUnits="userSpaceOnUse">
<stop stop-color="#BED3FF"/>
<stop offset="0.5576" stop-color="#6999FF"/>
<stop offset="1" stop-color="#0E4ED3"/>
</linearGradient>
<linearGradient id="paint22_linear" x1="114.628" y1="174.616" x2="127.284" y2="145.054" gradientUnits="userSpaceOnUse">
<stop stop-color="#D0DFFF"/>
<stop offset="0.5546" stop-color="#6697FF"/>
<stop offset="1" stop-color="#1C5CE3"/>
</linearGradient>
<linearGradient id="paint23_linear" x1="122.287" y1="163.864" x2="141.377" y2="163.864" gradientUnits="userSpaceOnUse">
<stop stop-color="#E0EAFF"/>
<stop offset="0.5546" stop-color="#6F9DFF"/>
<stop offset="1" stop-color="#3878FF"/>
</linearGradient>
<linearGradient id="paint24_linear" x1="150.237" y1="177.163" x2="133.234" y2="152.817" gradientUnits="userSpaceOnUse">
<stop stop-color="#A9C5FF"/>
<stop offset="0.5546" stop-color="#6093FF"/>
<stop offset="1" stop-color="#2467F2"/>
</linearGradient>
</defs>
</svg>
